HIERARCHY
ROOT Hips
{
 OFFSET 0.000000 0.000000 0.000000
 CHANNELS 6 Xposition Yposition Zposition Yrotation Xrotation Zrotation
 JOINT Chest
 {
  OFFSET 0.000000 9.585900 0.002600
  CHANNELS 3 Yrotation Xrotation Zrotation
  JOINT Chest2
  {
   OFFSET 0.000000 9.601200 -0.005300
   CHANNELS 3 Yrotation Xrotation Zrotation
   JOINT Chest3
   {
    OFFSET 0.000000 9.561800 0.000000
    CHANNELS 3 Yrotation Xrotation Zrotation
    JOINT Chest4
    {
     OFFSET 0.000000 9.552100 0.000000
     CHANNELS 3 Yrotation Xrotation Zrotation
     JOINT Neck
     {
      OFFSET 0.000000 14.453000 0.000000
      CHANNELS 3 Yrotation Xrotation Zrotation
      JOINT Head
      {
       OFFSET 0.000000 8.936500 -0.011300
       CHANNELS 3 Yrotation Xrotation Zrotation
       End Site
       {
        OFFSET 0.000000 17.073600 -0.006000
       }
      }
     }
     JOINT RightCollar
     {
      OFFSET -2.921100 9.558500 0.000000
      CHANNELS 3 Yrotation Xrotation Zrotation
      JOINT RightShoulder
      {
       OFFSET -13.519700 0.000000 0.000000
       CHANNELS 3 Yrotation Xrotation Zrotation
       JOINT RightElbow
       {
        OFFSET 0.000000 -29.696600 0.000000
        CHANNELS 3 Yrotation Xrotation Zrotation
        JOINT RightWrist
        {
         OFFSET 0.000000 -24.004700 0.000000
         CHANNELS 3 Yrotation Xrotation Zrotation
         End Site
         {
          OFFSET 0.000000 -17.728500 0.000000
         }
        }
       }
      }
     }
     JOINT LeftCollar
     {
      OFFSET 2.921100 9.558500 0.000000
      CHANNELS 3 Yrotation Xrotation Zrotation
      JOINT LeftShoulder
      {
       OFFSET 13.519700 0.000000 0.000000
       CHANNELS 3 Yrotation Xrotation Zrotation
       JOINT LeftElbow
       {
        OFFSET 0.000000 -29.696600 0.000000
        CHANNELS 3 Yrotation Xrotation Zrotation
        JOINT LeftWrist
        {
         OFFSET 0.000000 -24.004700 0.000000
         CHANNELS 3 Yrotation Xrotation Zrotation
         End Site
         {
          OFFSET 0.000000 -17.728500 0.000000
         }
        }
       }
      }
     }
    }
   }
  }
 }
 JOINT RightHip
 {
  OFFSET -7.771700 -0.012900 -0.001300
  CHANNELS 3 Yrotation Xrotation Zrotation
  JOINT RightKnee
  {
   OFFSET 0.000000 -40.869800 0.001200
   CHANNELS 3 Yrotation Xrotation Zrotation
   JOINT RightAnkle
   {
    OFFSET 0.000000 -39.717900 0.002100
    CHANNELS 3 Yrotation Xrotation Zrotation
    JOINT RightToe
    {
     OFFSET 0.000000 -4.965400 11.033500
     CHANNELS 3 Yrotation Xrotation Zrotation
     End Site
     {
      OFFSET 0.000000 -1.423100 5.872300
     }
    }
   }
  }
 }
 JOINT LeftHip
 {
  OFFSET 7.771700 -0.012900 -0.001300
  CHANNELS 3 Yrotation Xrotation Zrotation
  JOINT LeftKnee
  {
   OFFSET 0.000000 -40.869800 0.001200
   CHANNELS 3 Yrotation Xrotation Zrotation
   JOINT LeftAnkle
   {
    OFFSET 0.000000 -39.717900 0.002100
    CHANNELS 3 Yrotation Xrotation Zrotation
    JOINT LeftToe
    {
     OFFSET 0.000000 -4.965400 11.033500
     CHANNELS 3 Yrotation Xrotation Zrotation
     End Site
     {
      OFFSET 0.000000 -1.423100 5.872300
     }
    }
   }
  }
 }
}
MOTION
Frames: 6
Frame Time: 0.008333
-128.089053 57.368624 109.873024 173.866466 -51.396480 -0.730729 2.153737 28.542171 4.158766 0.144630 5.225024 0.591164 0.258508 8.208629 0.937757 1.100185 22.933958 2.825193 -3.765372 17.657803 -1.709535 -6.304519 -3.008519 -1.890714 2.239211 1.166864 -1.138560 9.136528 -27.437322 -4.628413 74.547565 -42.842763 -88.764157 23.089717 -13.102727 -57.433142 -10.713299 1.312417 -3.644146 13.844663 -20.429239 -7.140587 -87.008060 -28.234605 115.114124 -14.577904 -9.667892 37.972006 7.696221 -24.335291 0.343099 -12.493494 62.123530 -11.842613 6.863569 29.729583 4.778150 -0.739340 -17.039591 2.995314 -9.975629 -21.831265 0.472404 27.920935 60.065489 23.514360 -14.724071 11.603305 -4.721944 0.009686 0.211459 -0.006736
-128.093379 57.366434 109.876980 173.921924 -51.400353 -0.740669 2.097001 28.543353 4.118282 0.143859 5.227152 0.591391 0.255185 8.212772 0.938011 1.096338 22.937862 2.823231 -3.773299 17.654053 -1.718431 -6.338375 -3.012443 -1.904707 2.258857 1.133351 -1.164052 9.123586 -27.428629 -4.611757 74.510423 -42.833360 -88.761949 23.081420 -13.083434 -57.406602 -10.731721 1.265725 -3.652667 13.895309 -20.397947 -7.131757 -86.944962 -28.232900 115.136718 -14.555251 -9.690031 37.950826 7.679485 -24.328286 0.308054 -12.501778 62.118923 -11.847157 6.809231 29.727328 4.713458 -0.698483 -17.027319 3.031859 -10.005749 -21.831592 0.428033 27.965199 60.047985 23.578551 -14.773888 11.616866 -4.769585 0.041409 0.197674 0.007678
-128.093159 57.366358 109.879619 173.936569 -51.412153 -0.741928 2.080532 28.553156 4.105854 0.141505 5.227110 0.591811 0.256993 8.216797 0.936872 1.079447 22.942578 2.826195 -3.763780 17.648549 -1.730492 -6.383610 -3.017403 -1.917145 2.289933 1.096308 -1.197119 9.109075 -27.433581 -4.588951 74.466132 -42.819762 -88.726891 23.075343 -13.045790 -57.372171 -10.719188 1.252286 -3.661703 13.908379 -20.393463 -7.132454 -86.831232 -28.243094 115.187463 -14.510459 -9.796043 37.878449 7.673711 -24.316143 0.300072 -12.509820 62.114270 -11.854167 6.807531 29.727051 4.687944 -0.699212 -17.021690 3.054411 -10.020805 -21.817859 0.408348 27.991602 60.036421 23.605137 -14.761950 11.622590 -4.767655 0.029503 0.196122 0.001691
-128.091551 57.367735 109.881197 173.958293 -51.426973 -0.754014 2.061047 28.565489 4.099456 0.142666 5.229092 0.591695 0.249376 8.216069 0.938308 1.075692 22.945731 2.823327 -3.781471 17.646798 -1.739897 -6.408721 -3.020851 -1.935029 2.312574 1.066373 -1.223838 9.086935 -27.412197 -4.560655 74.455973 -42.810811 -88.730383 23.062295 -12.998457 -57.318870 -10.723366 1.222400 -3.672111 13.957047 -20.377241 -7.130284 -86.768523 -28.244684 115.197179 -14.487505 -9.799848 37.863696 7.650390 -24.298928 0.306600 -12.537811 62.105124 -11.885005 6.794417 29.728131 4.637074 -0.689096 -17.016453 3.089248 -10.038174 -21.801536 0.397561 28.008684 60.029227 23.623131 -14.752003 11.635439 -4.767611 0.016354 0.185101 -0.002185
-128.088209 57.369175 109.882995 173.988498 -51.434959 -0.782253 2.036032 28.570805 4.100622 0.141433 5.230225 0.591475 0.227994 8.211634 0.938466 1.099386 22.953457 2.818114 -3.836218 17.643458 -1.757429 -6.443604 -3.019959 -1.984595 2.328837 1.038200 -1.249325 9.072249 -27.411896 -4.537473 74.413216 -42.793204 -88.711188 23.041254 -12.949236 -57.248389 -10.725319 1.191000 -3.677196 14.014852 -20.365261 -7.124837 -86.730913 -28.246467 115.180962 -14.506597 -9.716128 37.855905 7.593734 -24.284640 0.334596 -12.603442 62.083156 -11.965438 6.795950 29.726387 4.588351 -0.670278 -17.005421 3.113042 -10.066401 -21.791200 0.399423 28.025507 60.019556 23.640991 -14.744051 11.656640 -4.769327 0.012367 0.171673 -0.004935
-128.087076 57.371305 109.884072 174.000646 -51.443133 -0.783625 1.987463 28.565252 4.075185 0.154707 5.238318 0.590944 0.235958 8.217308 0.936546 1.082418 22.951281 2.813577 -3.831049 17.647716 -1.768973 -6.451171 -3.018996 -1.998780 2.376745 0.992683 -1.299238 9.065727 -27.406641 -4.501336 74.329453 -42.768877 -88.666768 23.023557 -12.884035 -57.173681 -10.711505 1.169588 -3.688066 14.037865 -20.345200 -7.117757 -86.686953 -28.239101 115.178065 -14.522973 -9.659069 37.838102 7.575054 -24.273296 0.336131 -12.609437 62.075972 -11.982743 6.783235 29.726338 4.564280 -0.680558 -16.999546 3.134042 -10.074603 -21.783090 0.389892 28.031221 60.015461 23.648079 -14.746591 11.676548 -4.772626 0.014337 0.156103 -0.005326
